<svg xmlns="http://www.w3.org/2000/svg" xmlns:xlink="http://www.w3.org/1999/xlink" width="1111" zoomAndPan="magnify" viewBox="0 0 833.25 131.249995" height="175" preserveAspectRatio="xMidYMid meet" version="1.0"><defs><clipPath id="26aa5d2c49"><path d="M 1.996094 0 L 830.511719 0 L 830.511719 130.503906 L 1.996094 130.503906 Z M 1.996094 0 " clip-rule="nonzero"/></clipPath><clipPath id="87d3aa3878"><path d="M 0.996094 30.820312 L 103.402344 30.820312 L 103.402344 130.503906 L 0.996094 130.503906 Z M 0.996094 30.820312 " clip-rule="nonzero"/></clipPath><clipPath id="62c18076eb"><path d="M 0.992188 96.277344 C 0.992188 128.644531 27.660156 130.085938 35.179688 130.085938 L 94.925781 130.085938 C 99.5625 130.085938 103.308594 126.335938 103.308594 121.699219 L 103.308594 66.578125 C 103.308594 64.957031 102.632812 63.417969 101.421875 62.3125 L 68.875 32.472656 C 66.648438 30.375 63.136719 30.425781 60.910156 32.632812 L 30.992188 62.203125 C 29.421875 63.746094 28.554688 65.851562 28.554688 68.050781 L 28.554688 95.542969 C 28.554688 99.015625 31.636719 101.789062 35.207031 101.273438 C 38.144531 100.84375 40.140625 98.050781 40.140625 95.09375 L 40.140625 72.65625 C 40.140625 70.597656 40.96875 68.628906 42.429688 67.1875 L 61.347656 48.476562 C 63.476562 46.378906 66.867188 46.308594 69.066406 48.328125 L 89.445312 67.007812 C 90.917969 68.351562 91.753906 70.25 91.753906 72.25 L 91.753906 112.472656 C 91.753906 115.804688 89.058594 118.5 85.714844 118.5 L 36.234375 118.5 C 22.65625 118.5 11.65625 112.460938 11.804688 93.921875 L 11.804688 72.425781 C 11.804688 72.386719 11.824219 72.359375 11.824219 72.308594 L 11.824219 62.730469 L 0.992188 73.582031 Z M 0.992188 96.277344 " clip-rule="nonzero"/></clipPath><clipPath id="b52dc53c8d"><path d="M 0.996094 0.820312 L 103.371094 0.820312 L 103.371094 100.296875 L 0.996094 100.296875 Z M 0.996094 0.820312 " clip-rule="nonzero"/></clipPath><clipPath id="36466cf124"><path d="M 0.992188 66.277344 C 0.992188 98.644531 27.660156 100.085938 35.179688 100.085938 L 94.925781 100.085938 C 99.5625 100.085938 103.308594 96.335938 103.308594 91.699219 L 103.308594 36.578125 C 103.308594 34.957031 102.632812 33.417969 101.421875 32.3125 L 68.875 2.472656 C 66.648438 0.375 63.136719 0.425781 60.910156 2.632812 L 30.992188 32.203125 C 29.421875 33.746094 28.554688 35.851562 28.554688 38.050781 L 28.554688 65.542969 C 28.554688 69.015625 31.636719 71.789062 35.207031 71.273438 C 38.144531 70.84375 40.140625 68.050781 40.140625 65.09375 L 40.140625 42.65625 C 40.140625 40.597656 40.96875 38.628906 42.429688 37.1875 L 61.347656 18.476562 C 63.476562 16.378906 66.867188 16.308594 69.066406 18.328125 L 89.445312 37.007812 C 90.917969 38.351562 91.753906 40.25 91.753906 42.25 L 91.753906 82.472656 C 91.753906 85.804688 89.058594 88.5 85.714844 88.5 L 36.234375 88.5 C 22.65625 88.5 11.65625 82.460938 11.804688 63.921875 L 11.804688 42.425781 C 11.804688 42.386719 11.824219 42.359375 11.824219 42.308594 L 11.824219 32.730469 L 0.992188 43.582031 Z M 0.992188 66.277344 " clip-rule="nonzero"/></clipPath><clipPath id="834c5700cb"><rect x="0" width="104" y="0" height="101"/></clipPath><clipPath id="48344d08f1"><path d="M 65 0 L 129.976562 0 L 129.976562 59 L 65 59 Z M 65 0 " clip-rule="nonzero"/></clipPath><clipPath id="391c7d9456"><path d="M 74.574219 0 L 65.148438 9.4375 C 66.5 9.359375 67.871094 9.746094 68.945312 10.710938 L 119.550781 56.382812 C 120.257812 57.019531 120.753906 57.835938 121.035156 58.722656 L 129.894531 49.859375 Z M 74.574219 0 " clip-rule="nonzero"/></clipPath><clipPath id="dd3e08ada3"><path d="M 0 0 L 64.976562 0 L 64.976562 58.941406 L 0 58.941406 Z M 0 0 " clip-rule="nonzero"/></clipPath><clipPath id="961c6461bc"><path d="M 9.574219 0 L 0.148438 9.4375 C 1.5 9.359375 2.871094 9.746094 3.945312 10.710938 L 54.550781 56.382812 C 55.257812 57.019531 55.753906 57.835938 56.035156 58.722656 L 64.894531 49.859375 Z M 9.574219 0 " clip-rule="nonzero"/></clipPath><clipPath id="028cb50c3f"><rect x="0" width="65" y="0" height="59"/></clipPath><clipPath id="6d6c101f13"><path d="M 181.914062 19.664062 L 256.070312 19.664062 L 256.070312 127.710938 L 181.914062 127.710938 Z M 181.914062 19.664062 " clip-rule="nonzero"/></clipPath><clipPath id="afff5c6a14"><path d="M 192.855469 121.960938 C 192.855469 123.472656 192.328125 124.757812 191.253906 125.832031 C 190.179688 126.90625 188.894531 127.429688 187.382812 127.429688 C 185.871094 127.429688 184.578125 126.90625 183.515625 125.832031 C 182.449219 124.757812 181.914062 123.464844 181.914062 121.960938 L 181.914062 58.066406 C 181.914062 51.582031 183 45.941406 185.1875 41.128906 C 187.375 36.316406 190.1875 32.335938 193.652344 29.132812 C 197.113281 25.929688 201.070312 23.554688 205.515625 22.003906 C 209.960938 20.449219 214.457031 19.664062 218.992188 19.664062 C 223.527344 19.664062 228.015625 20.441406 232.460938 21.992188 C 236.90625 23.542969 240.882812 25.902344 244.394531 29.0625 C 247.90625 32.226562 250.730469 36.207031 252.859375 41.007812 C 254.988281 45.8125 256.0625 51.453125 256.0625 57.9375 L 256.0625 121.960938 C 256.0625 123.472656 255.527344 124.757812 254.460938 125.832031 C 253.398438 126.90625 252.105469 127.429688 250.59375 127.429688 C 249.070312 127.429688 247.789062 126.90625 246.722656 125.832031 C 245.660156 124.757812 245.121094 123.472656 245.121094 121.960938 L 245.121094 58.207031 C 245.121094 53.402344 244.394531 49.265625 242.921875 45.804688 C 241.453125 42.34375 239.503906 39.457031 237.054688 37.199219 C 234.609375 34.941406 231.824219 33.261719 228.660156 32.195312 C 225.496094 31.132812 222.277344 30.597656 218.992188 30.597656 C 215.613281 30.597656 212.367188 31.132812 209.257812 32.195312 C 206.144531 33.261719 203.367188 34.914062 200.921875 37.128906 C 198.472656 39.347656 196.515625 42.191406 195.054688 45.65625 C 193.589844 49.117188 192.855469 53.222656 192.855469 57.9375 Z M 192.855469 121.960938 " clip-rule="nonzero"/></clipPath><clipPath id="f143d6f1fc"><path d="M 0.914062 0.664062 L 75.070312 0.664062 L 75.070312 108.433594 L 0.914062 108.433594 Z M 0.914062 0.664062 " clip-rule="nonzero"/></clipPath><clipPath id="12d7418977"><path d="M 11.855469 102.960938 C 11.855469 104.472656 11.328125 105.757812 10.253906 106.832031 C 9.179688 107.90625 7.894531 108.429688 6.382812 108.429688 C 4.871094 108.429688 3.578125 107.90625 2.515625 106.832031 C 1.449219 105.757812 0.914062 104.464844 0.914062 102.960938 L 0.914062 39.066406 C 0.914062 32.582031 2 26.941406 4.1875 22.128906 C 6.375 17.316406 9.1875 13.335938 12.652344 10.132812 C 16.113281 6.929688 20.070312 4.554688 24.515625 3.003906 C 28.960938 1.449219 33.457031 0.664062 37.992188 0.664062 C 42.527344 0.664062 47.015625 1.441406 51.460938 2.992188 C 55.90625 4.542969 59.882812 6.902344 63.394531 10.0625 C 66.90625 13.226562 69.730469 17.207031 71.859375 22.007812 C 73.988281 26.8125 75.0625 32.453125 75.0625 38.9375 L 75.0625 102.960938 C 75.0625 104.472656 74.527344 105.757812 73.460938 106.832031 C 72.398438 107.90625 71.105469 108.429688 69.59375 108.429688 C 68.070312 108.429688 66.789062 107.90625 65.722656 106.832031 C 64.660156 105.757812 64.121094 104.472656 64.121094 102.960938 L 64.121094 39.207031 C 64.121094 34.402344 63.394531 30.265625 61.921875 26.804688 C 60.453125 23.34375 58.503906 20.457031 56.054688 18.199219 C 53.609375 15.941406 50.824219 14.261719 47.660156 13.195312 C 44.496094 12.132812 41.277344 11.597656 37.992188 11.597656 C 34.613281 11.597656 31.367188 12.132812 28.257812 13.195312 C 25.144531 14.261719 22.367188 15.914062 19.921875 18.128906 C 17.472656 20.347656 15.515625 23.191406 14.054688 26.65625 C 12.589844 30.117188 11.855469 34.222656 11.855469 38.9375 Z M 11.855469 102.960938 " clip-rule="nonzero"/></clipPath><clipPath id="8e8f07ff36"><rect x="0" width="76" y="0" height="109"/></clipPath><clipPath id="eb5059afab"><path d="M 276.605469 19.800781 L 333.242188 19.800781 L 333.242188 130.214844 L 276.605469 130.214844 Z M 276.605469 19.800781 " clip-rule="nonzero"/></clipPath><clipPath id="bba4939cfa"><path d="M 276.605469 58.070312 C 276.605469 51.585938 277.667969 45.9375 279.808594 41.132812 C 281.945312 36.328125 284.761719 32.351562 288.28125 29.199219 C 291.800781 26.046875 295.769531 23.6875 300.207031 22.136719 C 304.640625 20.585938 309.148438 19.800781 313.683594 19.800781 C 316.4375 19.800781 319.171875 20.058594 321.890625 20.59375 C 324.605469 21.132812 327.238281 22.015625 329.824219 23.261719 C 331.964844 24.246094 333.027344 25.886719 333.027344 28.195312 C 333.027344 29.714844 332.492188 31 331.425781 32.0625 C 330.363281 33.128906 329.070312 33.664062 327.558594 33.664062 C 326.851562 33.664062 326.097656 33.484375 325.289062 33.128906 C 321.648438 31.527344 317.78125 30.71875 313.691406 30.71875 C 310.3125 30.71875 307.070312 31.257812 303.957031 32.320312 C 300.84375 33.386719 298.066406 35.035156 295.621094 37.253906 C 293.175781 39.472656 291.214844 42.328125 289.753906 45.789062 C 288.289062 49.25 287.546875 53.359375 287.546875 58.070312 L 287.546875 63.8125 C 287.546875 65.324219 288.070312 66.605469 289.144531 67.679688 C 290.21875 68.753906 291.503906 69.28125 293.015625 69.28125 L 313.8125 69.28125 C 315.324219 69.28125 316.617188 69.816406 317.683594 70.882812 C 318.746094 71.945312 319.28125 73.238281 319.28125 74.75 C 319.28125 76.261719 318.746094 77.554688 317.683594 78.621094 C 316.617188 79.683594 315.324219 80.222656 313.8125 80.222656 L 293.003906 80.222656 C 291.492188 80.222656 290.210938 80.757812 289.136719 81.824219 C 288.0625 82.886719 287.546875 84.171875 287.546875 85.683594 L 287.546875 91.679688 C 287.546875 96.484375 288.28125 100.601562 289.742188 104.011719 C 291.214844 107.445312 293.164062 110.277344 295.609375 112.546875 C 298.058594 114.816406 300.832031 116.476562 303.945312 117.550781 C 307.058594 118.625 310.300781 119.152344 313.683594 119.152344 C 317.683594 119.152344 321.511719 118.34375 325.152344 116.753906 C 325.957031 116.394531 326.753906 116.21875 327.546875 116.21875 C 329.058594 116.21875 330.351562 116.753906 331.417969 117.816406 C 332.480469 118.882812 333.019531 120.175781 333.019531 121.6875 C 333.019531 122.839844 332.710938 123.867188 332.082031 124.75 C 331.457031 125.636719 330.660156 126.3125 329.675781 126.75 C 324.871094 128.96875 319.542969 130.082031 313.671875 130.082031 C 309.136719 130.082031 304.640625 129.304688 300.195312 127.753906 C 295.75 126.203125 291.792969 123.816406 288.332031 120.613281 C 284.878906 117.421875 282.054688 113.421875 279.875 108.617188 C 277.699219 103.8125 276.605469 98.175781 276.605469 91.679688 Z M 276.605469 58.070312 " clip-rule="nonzero"/></clipPath><clipPath id="aeddf1ae14"><path d="M 0.605469 0.800781 L 57.175781 0.800781 L 57.175781 111 L 0.605469 111 Z M 0.605469 0.800781 " clip-rule="nonzero"/></clipPath><clipPath id="a346b37f1a"><path d="M 0.605469 39.070312 C 0.605469 32.585938 1.667969 26.9375 3.808594 22.132812 C 5.945312 17.328125 8.761719 13.351562 12.28125 10.199219 C 15.800781 7.046875 19.769531 4.6875 24.207031 3.136719 C 28.640625 1.585938 33.148438 0.800781 37.683594 0.800781 C 40.4375 0.800781 43.171875 1.058594 45.890625 1.59375 C 48.605469 2.132812 51.238281 3.015625 53.824219 4.261719 C 55.964844 5.246094 57.027344 6.886719 57.027344 9.195312 C 57.027344 10.714844 56.492188 12 55.425781 13.0625 C 54.363281 14.128906 53.070312 14.664062 51.558594 14.664062 C 50.851562 14.664062 50.097656 14.484375 49.289062 14.128906 C 45.648438 12.527344 41.78125 11.71875 37.691406 11.71875 C 34.3125 11.71875 31.070312 12.257812 27.957031 13.320312 C 24.84375 14.386719 22.066406 16.035156 19.621094 18.253906 C 17.175781 20.472656 15.214844 23.328125 13.753906 26.789062 C 12.289062 30.25 11.546875 34.359375 11.546875 39.070312 L 11.546875 44.8125 C 11.546875 46.324219 12.070312 47.605469 13.144531 48.679688 C 14.21875 49.753906 15.503906 50.28125 17.015625 50.28125 L 37.8125 50.28125 C 39.324219 50.28125 40.617188 50.816406 41.683594 51.882812 C 42.746094 52.945312 43.28125 54.238281 43.28125 55.75 C 43.28125 57.261719 42.746094 58.554688 41.683594 59.621094 C 40.617188 60.683594 39.324219 61.222656 37.8125 61.222656 L 17.003906 61.222656 C 15.492188 61.222656 14.210938 61.757812 13.136719 62.824219 C 12.0625 63.886719 11.546875 65.171875 11.546875 66.683594 L 11.546875 72.679688 C 11.546875 77.484375 12.28125 81.601562 13.742188 85.011719 C 15.214844 88.445312 17.164062 91.277344 19.609375 93.546875 C 22.058594 95.816406 24.832031 97.476562 27.945312 98.550781 C 31.058594 99.625 34.300781 100.152344 37.683594 100.152344 C 41.683594 100.152344 45.511719 99.34375 49.152344 97.753906 C 49.957031 97.394531 50.753906 97.21875 51.546875 97.21875 C 53.058594 97.21875 54.351562 97.753906 55.417969 98.816406 C 56.480469 99.882812 57.019531 101.175781 57.019531 102.6875 C 57.019531 103.839844 56.710938 104.867188 56.082031 105.75 C 55.457031 106.636719 54.660156 107.3125 53.675781 107.75 C 48.871094 109.96875 43.542969 111.082031 37.671875 111.082031 C 33.136719 111.082031 28.640625 110.304688 24.195312 108.753906 C 19.75 107.203125 15.792969 104.816406 12.332031 101.613281 C 8.878906 98.421875 6.054688 94.421875 3.875 89.617188 C 1.699219 84.8125 0.605469 79.175781 0.605469 72.679688 Z M 0.605469 39.070312 " clip-rule="nonzero"/></clipPath><clipPath id="00ce07d9a4"><rect x="0" width="58" y="0" height="112"/></clipPath><clipPath id="f86f253251"><path d="M 345.289062 19.796875 L 452 19.796875 L 452 130.105469 L 345.289062 130.105469 Z M 345.289062 19.796875 " clip-rule="nonzero"/></clipPath><clipPath id="7de661ac1c"><path d="M 398.636719 130.089844 C 392.0625 130.089844 385.589844 128.988281 379.234375 126.757812 C 372.878906 124.53125 367.1875 121.140625 362.164062 116.566406 C 357.144531 111.980469 353.066406 106.25 349.960938 99.359375 C 346.859375 92.464844 345.289062 84.347656 345.289062 75.007812 C 345.289062 65.671875 346.828125 57.535156 349.890625 50.601562 C 352.957031 43.667969 357.003906 37.910156 362.027344 33.335938 C 367.050781 28.761719 372.769531 25.359375 379.164062 23.128906 C 385.558594 20.902344 392.054688 19.796875 398.636719 19.796875 C 405.222656 19.796875 411.675781 20.902344 418.042969 23.128906 C 424.398438 25.359375 430.089844 28.75 435.109375 33.335938 C 440.132812 37.921875 444.179688 43.667969 447.246094 50.601562 C 450.308594 57.535156 451.851562 65.679688 451.851562 75.007812 C 451.851562 84.339844 450.289062 92.457031 447.183594 99.347656 C 444.082031 106.242188 440.035156 111.96875 435.050781 116.554688 C 430.066406 121.128906 424.378906 124.53125 417.972656 126.75 C 411.566406 128.96875 405.125 130.082031 398.628906 130.082031 M 356.226562 75.007812 C 356.226562 82.570312 357.453125 89.125 359.898438 94.683594 C 362.34375 100.242188 365.539062 104.816406 369.507812 108.417969 C 373.472656 112.019531 377.980469 114.703125 383.042969 116.484375 C 388.105469 118.265625 393.296875 119.160156 398.636719 119.160156 C 403.890625 119.160156 409.042969 118.273438 414.113281 116.484375 C 419.1875 114.695312 423.691406 112.019531 427.652344 108.417969 C 431.601562 104.816406 434.800781 100.242188 437.25 94.683594 C 439.695312 89.125 440.917969 82.570312 440.917969 75.007812 C 440.917969 67.449219 439.714844 60.875 437.320312 55.265625 C 434.921875 49.667969 431.738281 45.0625 427.789062 41.460938 C 423.839844 37.859375 419.328125 35.175781 414.253906 33.394531 C 409.179688 31.613281 403.96875 30.730469 398.636719 30.730469 C 393.308594 30.730469 388.105469 31.625 383.042969 33.40625 C 377.980469 35.183594 373.433594 37.871094 369.4375 41.472656 C 365.4375 45.070312 362.234375 49.675781 359.828125 55.277344 C 357.421875 60.875 356.226562 67.449219 356.226562 75.007812 " clip-rule="nonzero"/></clipPath><clipPath id="3af6ea6fa8"><path d="M 0.289062 0.796875 L 107 0.796875 L 107 111.105469 L 0.289062 111.105469 Z M 0.289062 0.796875 " clip-rule="nonzero"/></clipPath><clipPath id="0c133febd6"><path d="M 53.636719 111.089844 C 47.0625 111.089844 40.589844 109.988281 34.234375 107.757812 C 27.878906 105.53125 22.1875 102.140625 17.164062 97.566406 C 12.144531 92.980469 8.066406 87.25 4.960938 80.359375 C 1.859375 73.464844 0.289062 65.347656 0.289062 56.007812 C 0.289062 46.671875 1.828125 38.535156 4.890625 31.601562 C 7.957031 24.667969 12.003906 18.910156 17.027344 14.335938 C 22.050781 9.761719 27.769531 6.359375 34.164062 4.128906 C 40.558594 1.902344 47.054688 0.796875 53.636719 0.796875 C 60.222656 0.796875 66.675781 1.902344 73.042969 4.128906 C 79.398438 6.359375 85.089844 9.75 90.109375 14.335938 C 95.132812 18.921875 99.179688 24.667969 102.246094 31.601562 C 105.308594 38.535156 106.851562 46.679688 106.851562 56.007812 C 106.851562 65.339844 105.289062 73.457031 102.183594 80.347656 C 99.082031 87.242188 95.035156 92.96875 90.050781 97.554688 C 85.066406 102.128906 79.378906 105.53125 72.972656 107.75 C 66.566406 109.96875 60.125 111.082031 53.628906 111.082031 M 11.226562 56.007812 C 11.226562 63.570312 12.453125 70.125 14.898438 75.683594 C 17.34375 81.242188 20.539062 85.816406 24.507812 89.417969 C 28.472656 93.019531 32.980469 95.703125 38.042969 97.484375 C 43.105469 99.265625 48.296875 100.160156 53.636719 100.160156 C 58.890625 100.160156 64.042969 99.273438 69.113281 97.484375 C 74.1875 95.695312 78.691406 93.019531 82.652344 89.417969 C 86.601562 85.816406 89.800781 81.242188 92.25 75.683594 C 94.695312 70.125 95.917969 63.570312 95.917969 56.007812 C 95.917969 48.449219 94.714844 41.875 92.320312 36.265625 C 89.921875 30.667969 86.738281 26.0625 82.789062 22.460938 C 78.839844 18.859375 74.328125 16.175781 69.253906 14.394531 C 64.179688 12.613281 58.96875 11.730469 53.636719 11.730469 C 48.308594 11.730469 43.105469 12.625 38.042969 14.40625 C 32.980469 16.183594 28.433594 18.871094 24.4375 22.472656 C 20.4375 26.070312 17.234375 30.675781 14.828125 36.277344 C 12.421875 41.875 11.226562 48.449219 11.226562 56.007812 " clip-rule="nonzero"/></clipPath><clipPath id="0ceaa3dc39"><rect x="0" width="107" y="0" height="112"/></clipPath><clipPath id="a4749077cd"><path d="M 470.117188 19.664062 L 544.269531 19.664062 L 544.269531 127.710938 L 470.117188 127.710938 Z M 470.117188 19.664062 " clip-rule="nonzero"/></clipPath><clipPath id="9e14a48c07"><path d="M 481.058594 121.960938 C 481.058594 123.472656 480.53125 124.757812 479.457031 125.832031 C 478.382812 126.90625 477.097656 127.429688 475.585938 127.429688 C 474.074219 127.429688 472.78125 126.90625 471.71875 125.832031 C 470.652344 124.757812 470.117188 123.464844 470.117188 121.960938 L 470.117188 58.066406 C 470.117188 51.582031 471.199219 45.941406 473.390625 41.128906 C 475.578125 36.316406 478.390625 32.335938 481.851562 29.132812 C 485.3125 25.929688 489.273438 23.554688 493.71875 22.003906 C 498.164062 20.449219 502.660156 19.664062 507.195312 19.664062 C 511.730469 19.664062 516.214844 20.441406 520.664062 21.992188 C 525.097656 23.554688 529.085938 25.929688 532.597656 29.125 C 536.109375 32.316406 538.933594 36.324219 541.0625 41.128906 C 543.191406 45.933594 544.265625 51.582031 544.265625 58.066406 L 544.265625 121.949219 C 544.265625 123.464844 543.726562 124.746094 542.664062 125.820312 C 541.597656 126.894531 540.304688 127.421875 538.792969 127.421875 C 537.273438 127.421875 535.988281 126.894531 534.914062 125.820312 C 533.839844 124.746094 533.3125 123.464844 533.3125 121.949219 L 533.3125 83.28125 C 533.3125 82.386719 533.003906 81.628906 532.378906 81.011719 C 531.753906 80.394531 530.957031 80.078125 529.980469 80.078125 L 484.261719 80.078125 C 483.363281 80.078125 482.609375 80.386719 481.992188 81.011719 C 481.375 81.640625 481.058594 82.394531 481.058594 83.28125 Z M 533.335938 58.207031 C 533.335938 53.402344 532.609375 49.265625 531.136719 45.804688 C 529.664062 42.34375 527.714844 39.457031 525.269531 37.199219 C 522.820312 34.941406 520.027344 33.261719 516.863281 32.195312 C 513.699219 31.132812 510.476562 30.597656 507.195312 30.597656 C 503.8125 30.597656 500.570312 31.132812 497.457031 32.195312 C 494.34375 33.261719 491.570312 34.933594 489.125 37.199219 C 486.675781 39.46875 484.71875 42.3125 483.253906 45.734375 C 481.792969 49.15625 481.058594 53.273438 481.058594 58.066406 L 481.058594 65.816406 C 481.058594 66.789062 481.367188 67.59375 481.992188 68.210938 C 482.617188 68.828125 483.363281 69.136719 484.261719 69.136719 L 529.992188 69.136719 C 532.210938 69.136719 533.324219 68.03125 533.324219 65.804688 Z M 533.335938 58.207031 " clip-rule="nonzero"/></clipPath><clipPath id="696290104c"><path d="M 0.117188 0.664062 L 74.269531 0.664062 L 74.269531 108.433594 L 0.117188 108.433594 Z M 0.117188 0.664062 " clip-rule="nonzero"/></clipPath><clipPath id="f01d1eef7e"><path d="M 11.058594 102.960938 C 11.058594 104.472656 10.53125 105.757812 9.457031 106.832031 C 8.382812 107.90625 7.097656 108.429688 5.585938 108.429688 C 4.074219 108.429688 2.78125 107.90625 1.71875 106.832031 C 0.652344 105.757812 0.117188 104.464844 0.117188 102.960938 L 0.117188 39.066406 C 0.117188 32.582031 1.199219 26.941406 3.390625 22.128906 C 5.578125 17.316406 8.390625 13.335938 11.851562 10.132812 C 15.3125 6.929688 19.273438 4.554688 23.71875 3.003906 C 28.164062 1.449219 32.660156 0.664062 37.195312 0.664062 C 41.730469 0.664062 46.214844 1.441406 50.664062 2.992188 C 55.097656 4.554688 59.085938 6.929688 62.597656 10.125 C 66.109375 13.316406 68.933594 17.324219 71.0625 22.128906 C 73.191406 26.933594 74.265625 32.582031 74.265625 39.066406 L 74.265625 102.949219 C 74.265625 104.464844 73.726562 105.746094 72.664062 106.820312 C 71.597656 107.894531 70.304688 108.421875 68.792969 108.421875 C 67.273438 108.421875 65.988281 107.894531 64.914062 106.820312 C 63.839844 105.746094 63.3125 104.464844 63.3125 102.949219 L 63.3125 64.28125 C 63.3125 63.386719 63.003906 62.628906 62.378906 62.011719 C 61.753906 61.394531 60.957031 61.078125 59.980469 61.078125 L 14.261719 61.078125 C 13.363281 61.078125 12.609375 61.386719 11.992188 62.011719 C 11.375 62.640625 11.058594 63.394531 11.058594 64.28125 Z M 63.335938 39.207031 C 63.335938 34.402344 62.609375 30.265625 61.136719 26.804688 C 59.664062 23.34375 57.714844 20.457031 55.269531 18.199219 C 52.820312 15.941406 50.027344 14.261719 46.863281 13.195312 C 43.699219 12.132812 40.476562 11.597656 37.195312 11.597656 C 33.8125 11.597656 30.570312 12.132812 27.457031 13.195312 C 24.34375 14.261719 21.570312 15.933594 19.125 18.199219 C 16.675781 20.46875 14.71875 23.3125 13.253906 26.734375 C 11.792969 30.15625 11.058594 34.273438 11.058594 39.066406 L 11.058594 46.816406 C 11.058594 47.789062 11.367188 48.59375 11.992188 49.210938 C 12.617188 49.828125 13.363281 50.136719 14.261719 50.136719 L 59.992188 50.136719 C 62.210938 50.136719 63.324219 49.03125 63.324219 46.804688 Z M 63.335938 39.207031 " clip-rule="nonzero"/></clipPath><clipPath id="7b28fd6c0f"><rect x="0" width="75" y="0" height="109"/></clipPath><clipPath id="ae6f310a72"><path d="M 566.542969 21.132812 L 634.6875 21.132812 L 634.6875 126.398438 L 566.542969 126.398438 Z M 566.542969 21.132812 " clip-rule="nonzero"/></clipPath><clipPath id="5bf640654d"><path d="M 566.542969 26.601562 C 566.542969 25.082031 567.070312 23.796875 568.144531 22.734375 C 569.21875 21.667969 570.492188 21.132812 572.003906 21.132812 L 594.285156 21.132812 C 600.0625 21.132812 605.105469 22.085938 609.421875 23.996094 C 613.738281 25.90625 617.289062 28.441406 620.09375 31.59375 C 622.898438 34.746094 624.988281 38.308594 626.359375 42.265625 C 627.734375 46.226562 628.421875 50.203125 628.421875 54.203125 C 628.421875 60.699219 626.820312 66.65625 623.625 72.074219 C 623.445312 72.253906 623.355469 72.5625 623.355469 73 C 623.355469 73.539062 623.585938 74.027344 624.023438 74.472656 C 627.316406 77.585938 629.871094 81.066406 631.691406 84.945312 C 633.511719 88.824219 634.425781 92.882812 634.425781 97.148438 C 634.425781 100.800781 633.800781 104.351562 632.566406 107.8125 C 631.335938 111.273438 629.445312 114.398438 626.957031 117.152344 C 624.472656 119.90625 621.328125 122.136719 617.558594 123.816406 C 613.789062 125.496094 609.351562 126.351562 604.289062 126.351562 L 572.003906 126.351562 C 570.492188 126.351562 569.210938 125.824219 568.136719 124.75 C 567.0625 123.675781 566.542969 122.402344 566.542969 120.890625 Z M 604.28125 68.078125 C 606.945312 68.078125 609.480469 68.355469 611.878906 68.882812 C 612.238281 68.882812 612.496094 68.792969 612.683594 68.613281 C 615.886719 64.527344 617.488281 59.734375 617.488281 54.210938 C 617.488281 51.457031 617.042969 48.753906 616.15625 46.085938 C 615.261719 43.421875 613.859375 41.035156 611.949219 38.945312 C 610.039062 36.855469 607.621094 35.195312 604.679688 33.941406 C 601.734375 32.6875 598.28125 32.074219 594.285156 32.074219 L 580.679688 32.074219 C 579.792969 32.074219 579.027344 32.378906 578.410156 32.996094 C 577.792969 33.613281 577.476562 34.417969 577.476562 35.40625 L 577.476562 64.746094 C 577.476562 65.71875 577.785156 66.527344 578.410156 67.144531 C 579.039062 67.757812 579.792969 68.066406 580.679688 68.066406 Z M 604.28125 115.429688 C 607.574219 115.429688 610.4375 114.925781 612.882812 113.890625 C 615.332031 112.855469 617.328125 111.511719 618.882812 109.820312 C 620.433594 108.132812 621.597656 106.203125 622.351562 104.011719 C 623.109375 101.824219 623.476562 99.546875 623.476562 97.148438 C 623.476562 94.84375 623.097656 92.59375 622.351562 90.40625 C 621.597656 88.230469 620.433594 86.300781 618.882812 84.609375 C 617.328125 82.917969 615.320312 81.566406 612.882812 80.539062 C 610.445312 79.515625 607.125 79 602.949219 79 L 580.679688 79 C 579.792969 79 579.027344 79.308594 578.410156 79.933594 C 577.792969 80.558594 577.476562 81.304688 577.476562 82.203125 L 577.476562 112.21875 C 577.476562 113.105469 577.785156 113.859375 578.410156 114.488281 C 579.039062 115.113281 579.792969 115.421875 580.679688 115.421875 Z M 604.28125 115.429688 " clip-rule="nonzero"/></clipPath><clipPath id="1168119d96"><path d="M 0.542969 0.132812 L 68.574219 0.132812 L 68.574219 105.398438 L 0.542969 105.398438 Z M 0.542969 0.132812 " clip-rule="nonzero"/></clipPath><clipPath id="a04ff9da14"><path d="M 0.542969 5.601562 C 0.542969 4.082031 1.070312 2.796875 2.144531 1.734375 C 3.21875 0.667969 4.492188 0.132812 6.003906 0.132812 L 28.285156 0.132812 C 34.0625 0.132812 39.105469 1.085938 43.421875 2.996094 C 47.738281 4.90625 51.289062 7.441406 54.09375 10.59375 C 56.898438 13.746094 58.988281 17.308594 60.359375 21.265625 C 61.734375 25.226562 62.421875 29.203125 62.421875 33.203125 C 62.421875 39.699219 60.820312 45.65625 57.625 51.074219 C 57.445312 51.253906 57.355469 51.5625 57.355469 52 C 57.355469 52.539062 57.585938 53.027344 58.023438 53.472656 C 61.316406 56.585938 63.871094 60.066406 65.691406 63.945312 C 67.511719 67.824219 68.425781 71.882812 68.425781 76.148438 C 68.425781 79.800781 67.800781 83.351562 66.566406 86.8125 C 65.335938 90.273438 63.445312 93.398438 60.957031 96.152344 C 58.472656 98.90625 55.328125 101.136719 51.558594 102.816406 C 47.789062 104.496094 43.351562 105.351562 38.289062 105.351562 L 6.003906 105.351562 C 4.492188 105.351562 3.210938 104.824219 2.136719 103.75 C 1.0625 102.675781 0.542969 101.402344 0.542969 99.890625 Z M 38.28125 47.078125 C 40.945312 47.078125 43.480469 47.355469 45.878906 47.882812 C 46.238281 47.882812 46.496094 47.792969 46.683594 47.613281 C 49.886719 43.527344 51.488281 38.734375 51.488281 33.210938 C 51.488281 30.457031 51.042969 27.753906 50.15625 25.085938 C 49.261719 22.421875 47.859375 20.035156 45.949219 17.945312 C 44.039062 15.855469 41.621094 14.195312 38.679688 12.941406 C 35.734375 11.6875 32.28125 11.074219 28.285156 11.074219 L 14.679688 11.074219 C 13.792969 11.074219 13.027344 11.378906 12.410156 11.996094 C 11.792969 12.613281 11.476562 13.417969 11.476562 14.40625 L 11.476562 43.746094 C 11.476562 44.71875 11.785156 45.527344 12.410156 46.144531 C 13.039062 46.757812 13.792969 47.066406 14.679688 47.066406 Z M 38.28125 94.429688 C 41.574219 94.429688 44.4375 93.925781 46.882812 92.890625 C 49.332031 91.855469 51.328125 90.511719 52.882812 88.820312 C 54.433594 87.132812 55.597656 85.203125 56.351562 83.011719 C 57.109375 80.824219 57.476562 78.546875 57.476562 76.148438 C 57.476562 73.84375 57.097656 71.59375 56.351562 69.40625 C 55.597656 67.230469 54.433594 65.300781 52.882812 63.609375 C 51.328125 61.917969 49.320312 60.566406 46.882812 59.539062 C 44.445312 58.515625 41.125 58 36.949219 58 L 14.679688 58 C 13.792969 58 13.027344 58.308594 12.410156 58.933594 C 11.792969 59.558594 11.476562 60.304688 11.476562 61.203125 L 11.476562 91.21875 C 11.476562 92.105469 11.785156 92.859375 12.410156 93.488281 C 13.039062 94.113281 13.792969 94.421875 14.679688 94.421875 Z M 38.28125 94.429688 " clip-rule="nonzero"/></clipPath><clipPath id="ccbf9992ce"><rect x="0" width="69" y="0" height="106"/></clipPath><clipPath id="68d9e75a54"><path d="M 654.832031 19.664062 L 665.765625 19.664062 L 665.765625 127.433594 L 654.832031 127.433594 Z M 654.832031 19.664062 " clip-rule="nonzero"/></clipPath><clipPath id="756a4645f2"><path d="M 654.832031 25.132812 C 654.832031 23.621094 655.359375 22.328125 656.433594 21.265625 C 657.507812 20.203125 658.792969 19.664062 660.292969 19.664062 C 661.796875 19.664062 663.097656 20.191406 664.164062 21.265625 C 665.226562 22.339844 665.765625 23.621094 665.765625 25.132812 L 665.765625 121.957031 C 665.765625 123.46875 665.238281 124.753906 664.164062 125.828125 C 663.089844 126.902344 661.804688 127.429688 660.292969 127.429688 C 658.78125 127.429688 657.5 126.902344 656.425781 125.828125 C 655.351562 124.753906 654.832031 123.46875 654.832031 121.957031 Z M 654.832031 25.132812 " clip-rule="nonzero"/></clipPath><clipPath id="a33eed3bde"><path d="M 0.832031 0.664062 L 11.765625 0.664062 L 11.765625 108.433594 L 0.832031 108.433594 Z M 0.832031 0.664062 " clip-rule="nonzero"/></clipPath><clipPath id="957fb615b3"><path d="M 0.832031 6.132812 C 0.832031 4.621094 1.359375 3.328125 2.433594 2.265625 C 3.507812 1.203125 4.792969 0.664062 6.292969 0.664062 C 7.796875 0.664062 9.097656 1.191406 10.164062 2.265625 C 11.226562 3.339844 11.765625 4.621094 11.765625 6.132812 L 11.765625 102.957031 C 11.765625 104.46875 11.238281 105.753906 10.164062 106.828125 C 9.089844 107.902344 7.804688 108.429688 6.292969 108.429688 C 4.78125 108.429688 3.5 107.902344 2.425781 106.828125 C 1.351562 105.753906 0.832031 104.46875 0.832031 102.957031 Z M 0.832031 6.132812 " clip-rule="nonzero"/></clipPath><clipPath id="2320ff1af0"><rect x="0" width="12" y="0" height="109"/></clipPath><clipPath id="bfbc27d9cf"><path d="M 678.835938 21.128906 L 744.457031 21.128906 L 744.457031 127.503906 L 678.835938 127.503906 Z M 678.835938 21.128906 " clip-rule="nonzero"/></clipPath><clipPath id="6c2c41661d"><path d="M 717.109375 121.953125 C 717.109375 123.464844 716.574219 124.75 715.507812 125.824219 C 714.445312 126.898438 713.152344 127.425781 711.640625 127.425781 C 710.128906 127.425781 708.835938 126.898438 707.769531 125.824219 C 706.707031 124.75 706.167969 123.464844 706.167969 121.953125 L 706.167969 36.734375 C 706.167969 35.492188 705.703125 34.398438 704.765625 33.472656 C 703.832031 32.539062 702.738281 32.070312 701.492188 32.070312 L 684.296875 32.070312 C 682.785156 32.070312 681.503906 31.535156 680.429688 30.46875 C 679.355469 29.40625 678.835938 28.113281 678.835938 26.601562 C 678.835938 25.089844 679.363281 23.796875 680.4375 22.730469 C 681.511719 21.667969 682.785156 21.128906 684.296875 21.128906 L 738.980469 21.128906 C 740.492188 21.128906 741.785156 21.65625 742.851562 22.730469 C 743.914062 23.804688 744.453125 25.089844 744.453125 26.601562 C 744.453125 28.113281 743.914062 29.394531 742.851562 30.46875 C 741.785156 31.542969 740.492188 32.070312 738.980469 32.070312 L 721.773438 32.070312 C 720.53125 32.070312 719.445312 32.539062 718.511719 33.472656 C 717.578125 34.410156 717.109375 35.492188 717.109375 36.734375 Z M 717.109375 121.953125 " clip-rule="nonzero"/></clipPath><clipPath id="42e4a94337"><path d="M 0.835938 0.128906 L 66.457031 0.128906 L 66.457031 106.433594 L 0.835938 106.433594 Z M 0.835938 0.128906 " clip-rule="nonzero"/></clipPath><clipPath id="74ac1c10fc"><path d="M 39.109375 100.953125 C 39.109375 102.464844 38.574219 103.75 37.507812 104.824219 C 36.445312 105.898438 35.152344 106.425781 33.640625 106.425781 C 32.128906 106.425781 30.835938 105.898438 29.769531 104.824219 C 28.707031 103.75 28.167969 102.464844 28.167969 100.953125 L 28.167969 15.734375 C 28.167969 14.492188 27.703125 13.398438 26.765625 12.472656 C 25.832031 11.539062 24.738281 11.070312 23.492188 11.070312 L 6.296875 11.070312 C 4.785156 11.070312 3.503906 10.535156 2.429688 9.46875 C 1.355469 8.40625 0.835938 7.113281 0.835938 5.601562 C 0.835938 4.089844 1.363281 2.796875 2.4375 1.730469 C 3.511719 0.667969 4.785156 0.128906 6.296875 0.128906 L 60.980469 0.128906 C 62.492188 0.128906 63.785156 0.65625 64.851562 1.730469 C 65.914062 2.804688 66.453125 4.089844 66.453125 5.601562 C 66.453125 7.113281 65.914062 8.394531 64.851562 9.46875 C 63.785156 10.542969 62.492188 11.070312 60.980469 11.070312 L 43.773438 11.070312 C 42.53125 11.070312 41.445312 11.539062 40.511719 12.472656 C 39.578125 13.410156 39.109375 14.492188 39.109375 15.734375 Z M 39.109375 100.953125 " clip-rule="nonzero"/></clipPath><clipPath id="396820ed40"><rect x="0" width="67" y="0" height="107"/></clipPath><clipPath id="e09cc2ab41"><path d="M 755.789062 19.664062 L 829.511719 19.664062 L 829.511719 127.710938 L 755.789062 127.710938 Z M 755.789062 19.664062 " clip-rule="nonzero"/></clipPath><clipPath id="f75a8c1910"><path d="M 766.730469 121.960938 C 766.730469 123.472656 766.203125 124.757812 765.128906 125.832031 C 764.054688 126.90625 762.773438 127.429688 761.261719 127.429688 C 759.75 127.429688 758.457031 126.90625 757.390625 125.832031 C 756.328125 124.757812 755.789062 123.464844 755.789062 121.960938 L 755.789062 58.066406 C 755.789062 51.582031 756.875 45.941406 759.0625 41.128906 C 761.25 36.316406 764.054688 32.335938 767.527344 29.132812 C 771 25.929688 774.945312 23.554688 779.394531 22.003906 C 783.839844 20.449219 788.335938 19.664062 792.871094 19.664062 C 797.40625 19.664062 801.890625 20.441406 806.335938 21.992188 C 810.78125 23.542969 814.761719 25.929688 818.273438 29.125 C 821.785156 32.316406 824.609375 36.324219 826.738281 41.128906 C 828.863281 45.933594 829.9375 51.582031 829.9375 58.066406 L 829.9375 121.949219 C 829.9375 123.464844 829.402344 124.746094 828.339844 125.820312 C 827.273438 126.894531 825.980469 127.421875 824.46875 127.421875 C 822.945312 127.421875 821.664062 126.894531 820.589844 125.820312 C 819.515625 124.746094 818.988281 123.464844 818.988281 121.949219 L 818.988281 83.28125 C 818.988281 82.386719 818.679688 81.628906 818.054688 81.011719 C 817.425781 80.394531 816.632812 80.078125 815.648438 80.078125 L 769.933594 80.078125 C 769.039062 80.078125 768.28125 80.386719 767.667969 81.011719 C 767.050781 81.640625 766.730469 82.394531 766.730469 83.28125 Z M 819.007812 58.207031 C 819.007812 53.402344 818.28125 49.265625 816.800781 45.804688 C 815.320312 42.34375 813.378906 39.457031 810.941406 37.199219 C 808.503906 34.941406 805.699219 33.261719 802.539062 32.195312 C 799.375 31.132812 796.164062 30.597656 792.871094 30.597656 C 789.488281 30.597656 786.246094 31.132812 783.132812 32.195312 C 780.019531 33.261719 777.246094 34.933594 774.796875 37.199219 C 772.351562 39.46875 770.390625 42.3125 768.929688 45.734375 C 767.46875 49.15625 766.730469 53.273438 766.730469 58.066406 L 766.730469 65.816406 C 766.730469 66.789062 767.039062 67.59375 767.667969 68.210938 C 768.292969 68.828125 769.039062 69.136719 769.933594 69.136719 L 815.667969 69.136719 C 817.894531 69.136719 819.007812 68.03125 819.007812 65.804688 Z M 819.007812 58.207031 " clip-rule="nonzero"/></clipPath><clipPath id="2aa52282d6"><path d="M 0.789062 0.664062 L 74.511719 0.664062 L 74.511719 108.433594 L 0.789062 108.433594 Z M 0.789062 0.664062 " clip-rule="nonzero"/></clipPath><clipPath id="847336ab56"><path d="M 11.730469 102.960938 C 11.730469 104.472656 11.203125 105.757812 10.128906 106.832031 C 9.054688 107.90625 7.773438 108.429688 6.261719 108.429688 C 4.75 108.429688 3.457031 107.90625 2.390625 106.832031 C 1.328125 105.757812 0.789062 104.464844 0.789062 102.960938 L 0.789062 39.066406 C 0.789062 32.582031 1.875 26.941406 4.0625 22.128906 C 6.25 17.316406 9.054688 13.335938 12.527344 10.132812 C 16 6.929688 19.945312 4.554688 24.394531 3.003906 C 28.839844 1.449219 33.335938 0.664062 37.871094 0.664062 C 42.40625 0.664062 46.890625 1.441406 51.335938 2.992188 C 55.78125 4.542969 59.761719 6.929688 63.273438 10.125 C 66.785156 13.316406 69.609375 17.324219 71.738281 22.128906 C 73.863281 26.933594 74.9375 32.582031 74.9375 39.066406 L 74.9375 102.949219 C 74.9375 104.464844 74.402344 105.746094 73.339844 106.820312 C 72.273438 107.894531 70.980469 108.421875 69.46875 108.421875 C 67.945312 108.421875 66.664062 107.894531 65.589844 106.820312 C 64.515625 105.746094 63.988281 104.464844 63.988281 102.949219 L 63.988281 64.28125 C 63.988281 63.386719 63.679688 62.628906 63.054688 62.011719 C 62.425781 61.394531 61.632812 61.078125 60.648438 61.078125 L 14.933594 61.078125 C 14.039062 61.078125 13.28125 61.386719 12.667969 62.011719 C 12.050781 62.640625 11.730469 63.394531 11.730469 64.28125 Z M 64.007812 39.207031 C 64.007812 34.402344 63.28125 30.265625 61.800781 26.804688 C 60.320312 23.34375 58.378906 20.457031 55.941406 18.199219 C 53.503906 15.941406 50.699219 14.261719 47.539062 13.195312 C 44.375 12.132812 41.164062 11.597656 37.871094 11.597656 C 34.488281 11.597656 31.246094 12.132812 28.132812 13.195312 C 25.019531 14.261719 22.246094 15.933594 19.796875 18.199219 C 17.351562 20.46875 15.390625 23.3125 13.929688 26.734375 C 12.46875 30.15625 11.730469 34.273438 11.730469 39.066406 L 11.730469 46.816406 C 11.730469 47.789062 12.039062 48.59375 12.667969 49.210938 C 13.292969 49.828125 14.039062 50.136719 14.933594 50.136719 L 60.667969 50.136719 C 62.894531 50.136719 64.007812 49.03125 64.007812 46.804688 Z M 64.007812 39.207031 " clip-rule="nonzero"/></clipPath><clipPath id="683bf0b556"><rect x="0" width="75" y="0" height="109"/></clipPath><clipPath id="e35a7ac190"><rect x="0" width="830" y="0" height="131"/></clipPath></defs><g clip-path="url(#26aa5d2c49)"><g transform="matrix(1, 0, 0, 1, 1, -0.000000000000010143)"><g clip-path="url(#e35a7ac190)"><g clip-path="url(#87d3aa3878)"><g clip-path="url(#62c18076eb)"><g transform="matrix(1, 0, 0, 1, 0.000000000000000222, 30)"><g clip-path="url(#834c5700cb)"><g clip-path="url(#b52dc53c8d)"><g clip-path="url(#36466cf124)"><rect x="-304.303" width="1439.856" fill="#eb5d43" y="-77.774998" height="226.799991" fill-opacity="1"/></g></g></g></g></g></g><g clip-path="url(#48344d08f1)"><g clip-path="url(#391c7d9456)"><g transform="matrix(1, 0, 0, 1, 65, -0.000000000000010143)"><g clip-path="url(#028cb50c3f)"><g clip-path="url(#dd3e08ada3)"><g clip-path="url(#961c6461bc)"><rect x="-369.303" width="1439.856" fill="#eb5d43" y="-47.774998" height="226.799991" fill-opacity="1"/></g></g></g></g></g></g><g clip-path="url(#6d6c101f13)"><g clip-path="url(#afff5c6a14)"><g transform="matrix(1, 0, 0, 1, 181, 19)"><g clip-path="url(#8e8f07ff36)"><g clip-path="url(#f143d6f1fc)"><g clip-path="url(#12d7418977)"><path fill="#eb5d43" d="M 0.914062 0.664062 L 75.070312 0.664062 L 75.070312 108.421875 L 0.914062 108.421875 Z M 0.914062 0.664062 " fill-opacity="1" fill-rule="nonzero"/></g></g></g></g></g></g><g clip-path="url(#eb5059afab)"><g clip-path="url(#bba4939cfa)"><g transform="matrix(1, 0, 0, 1, 276, 19)"><g clip-path="url(#00ce07d9a4)"><g clip-path="url(#aeddf1ae14)"><g clip-path="url(#a346b37f1a)"><path fill="#eb5d43" d="M 0.605469 0.800781 L 57.023438 0.800781 L 57.023438 110.992188 L 0.605469 110.992188 Z M 0.605469 0.800781 " fill-opacity="1" fill-rule="nonzero"/></g></g></g></g></g></g><g clip-path="url(#f86f253251)"><g clip-path="url(#7de661ac1c)"><g transform="matrix(1, 0, 0, 1, 345, 19)"><g clip-path="url(#0ceaa3dc39)"><g clip-path="url(#3af6ea6fa8)"><g clip-path="url(#0c133febd6)"><path fill="#eb5d43" d="M 0.289062 0.796875 L 106.847656 0.796875 L 106.847656 111.105469 L 0.289062 111.105469 Z M 0.289062 0.796875 " fill-opacity="1" fill-rule="nonzero"/></g></g></g></g></g></g><g clip-path="url(#a4749077cd)"><g clip-path="url(#9e14a48c07)"><g transform="matrix(1, 0, 0, 1, 470, 19)"><g clip-path="url(#7b28fd6c0f)"><g clip-path="url(#696290104c)"><g clip-path="url(#f01d1eef7e)"><path fill="#eb5d43" d="M 0.117188 0.664062 L 74.269531 0.664062 L 74.269531 108.421875 L 0.117188 108.421875 Z M 0.117188 0.664062 " fill-opacity="1" fill-rule="nonzero"/></g></g></g></g></g></g><g clip-path="url(#ae6f310a72)"><g clip-path="url(#5bf640654d)"><g transform="matrix(1, 0, 0, 1, 566, 21)"><g clip-path="url(#ccbf9992ce)"><g clip-path="url(#1168119d96)"><g clip-path="url(#a04ff9da14)"><path fill="#eb5d43" d="M 0.542969 0.132812 L 68.421875 0.132812 L 68.421875 105.398438 L 0.542969 105.398438 Z M 0.542969 0.132812 " fill-opacity="1" fill-rule="nonzero"/></g></g></g></g></g></g><g clip-path="url(#68d9e75a54)"><g clip-path="url(#756a4645f2)"><g transform="matrix(1, 0, 0, 1, 654, 19)"><g clip-path="url(#2320ff1af0)"><g clip-path="url(#a33eed3bde)"><g clip-path="url(#957fb615b3)"><path fill="#eb5d43" d="M 0.832031 0.664062 L 11.765625 0.664062 L 11.765625 108.433594 L 0.832031 108.433594 Z M 0.832031 0.664062 " fill-opacity="1" fill-rule="nonzero"/></g></g></g></g></g></g><g clip-path="url(#bfbc27d9cf)"><g clip-path="url(#6c2c41661d)"><g transform="matrix(1, 0, 0, 1, 678, 21)"><g clip-path="url(#396820ed40)"><g clip-path="url(#42e4a94337)"><g clip-path="url(#74ac1c10fc)"><path fill="#eb5d43" d="M 0.835938 0.128906 L 66.457031 0.128906 L 66.457031 106.503906 L 0.835938 106.503906 Z M 0.835938 0.128906 " fill-opacity="1" fill-rule="nonzero"/></g></g></g></g></g></g><g clip-path="url(#e09cc2ab41)"><g clip-path="url(#f75a8c1910)"><g transform="matrix(1, 0, 0, 1, 755, 19)"><g clip-path="url(#683bf0b556)"><g clip-path="url(#2aa52282d6)"><g clip-path="url(#847336ab56)"><path fill="#eb5d43" d="M 0.789062 0.664062 L 74.945312 0.664062 L 74.945312 108.421875 L 0.789062 108.421875 Z M 0.789062 0.664062 " fill-opacity="1" fill-rule="nonzero"/></g></g></g></g></g></g></g></g></g></svg>